<svg id="visual" viewBox="0 0 900 600" width="900" height="600" xmlns="http://www.w3.org/2000/svg" xmlns:xlink="http://www.w3.org/1999/xlink" version="1.1"><path d="M0 484L21.5 489C43 494 86 504 128.8 498.8C171.7 493.7 214.3 473.3 257.2 467.2C300 461 343 469 385.8 458C428.7 447 471.3 417 514.2 407C557 397 600 407 642.8 426.5C685.7 446 728.3 475 771.2 471.8C814 468.7 857 433.3 878.5 415.7L900 398L900 601L878.5 601C857 601 814 601 771.2 601C728.3 601 685.7 601 642.8 601C600 601 557 601 514.2 601C471.3 601 428.7 601 385.8 601C343 601 300 601 257.2 601C214.3 601 171.7 601 128.8 601C86 601 43 601 21.5 601L0 601Z" fill="#000000" stroke-linecap="round" stroke-linejoin="miter"></path></svg>